<?xml version="1.0" standalone="no"?>
<!DOCTYPE svg PUBLIC "-//W3C//DTD SVG 20010904//EN"
 "http://www.w3.org/TR/2001/REC-SVG-20010904/DTD/svg10.dtd">
<svg version="1.0" xmlns="http://www.w3.org/2000/svg"
 width="580.000000pt" height="406.000000pt" viewBox="0 0 580.000000 406.000000"
 preserveAspectRatio="xMidYMid meet">

<g transform="translate(0.000000,406.000000) scale(0.100000,-0.100000)"
fill="#000000" stroke="none">
<path d="M2110 3304 c-135 -35 -279 -132 -365 -246 -228 -301 -185 -735 110
-1113 62 -80 210 -231 295 -300 83 -69 330 -234 330 -221 0 2 -26 23 -57 47
-165 123 -320 288 -438 464 -130 194 -182 335 -192 520 -11 204 61 367 215
491 122 98 263 142 421 131 325 -24 631 -252 792 -591 48 -100 49 -92 5 22
-134 347 -340 603 -581 722 -131 64 -238 90 -369 89 -62 0 -135 -7 -166 -15z"/>
<path d="M3480 3254 c-69 -8 -176 -37 -248 -66 -40 -17 -72 -32 -70 -33 2 -2
41 7 87 21 186 54 342 13 472 -123 63 -66 117 -169 145 -278 24 -94 24 -317 0
-430 -58 -270 -190 -512 -424 -780 -245 -280 -419 -443 -682 -637 -157 -117
-149 -114 85 29 412 253 794 566 1020 837 164 197 291 451 326 653 18 104 7
274 -24 361 -79 224 -261 388 -477 431 -69 13 -164 20 -210 15z"/>
</g>
</svg>
